# xmcd
#
# Track frame offsets: 
#        150
#        13769
#        27833
#        41195
#        52760
#        66189
#        79737
#        93680
#        107530
#        119788
#        133497
#        146779
#        159777
#        171731
#        186675
#        198062
#        210760
#        225709
#        239326
#        252789
#        265440
#        278575
#        292656
#        304917
#        319744
#        333742
#
# Disc length: 4599 seconds
#
# Revision: 1
# Processed by: cddbd v1.5.2PL0 Copyright (c) Steve Scherf et al.
# Submitted via: ExactAudioCopy v1.0b1
#
DISCID=8511f51a
DTITLE=Various Artist - The Original Sonny Boy Williamson - Disc 1
DYEAR=2007
DGENRE=Blues
TTITLE0=Sonny Boy Williamson - Good Morning Little School Girl
TTITLE1=Sonny Boy Williamson - Blue Bird Blues
TTITLE2=Sonny Boy Williamson - Jackson Blues
TTITLE3=Sonny Boy Williamson - Got The Bottle Up And Gone
TTITLE4=Sonny Boy Williamson - Sugar Mama Blues
TTITLE5=Sonny Boy Williamson - Skinny Woman
TTITLE6=Robert Lee McCoy - Tough Luck
TTITLE7=Robert Lee McCoy - Prowling Night Hawk
TTITLE8=Robert Lee McCoy - Sweet Pepper Mama
TTITLE9=Big Joe Williams - I Know You Gonna Miss Me
TTITLE10=Big Joe Williams - Rootin' Ground Hog
TTITLE11=Big Joe Williams - Brother James
TTITLE12=Big Joe Williams - I Won't Be In Hard Luck No More
TTITLE13=Sonny Boy Williamson - Up The Country Blues
TTITLE14=Sonny Boy Williamson - Worried Me Blues
TTITLE15=Sonny Boy Williamson - Black Gal Blues
TTITLE16=Sonny Boy Williamson - Collector Man Blues
TTITLE17=Sonny Boy Williamson - Frigidaire Blues
TTITLE18=Sonny Boy Williamson - Suzanna Blues
TTITLE19=Sonny Boy Williamson - Early In The Morning
TTITLE20=Sonny Boy Williamson - Project Highway
TTITLE21=Robert Lee McCoy - My Friend Has Forsaken Me
TTITLE22=Robert Lee McCoy - Mean Black Cat
TTITLE23=Robert Lee McCoy - Brickyard
TTITLE24=Robert Lee McCoy - Mamie Lee
TTITLE25=Robert Lee McCoy - Take It Easy Baby
EXTD=
EXTT0=
EXTT1=
EXTT2=
EXTT3=
EXTT4=
EXTT5=
EXTT6=
EXTT7=
EXTT8=
EXTT9=
EXTT10=
EXTT11=
EXTT12=
EXTT13=
EXTT14=
EXTT15=
EXTT16=
EXTT17=
EXTT18=
EXTT19=
EXTT20=
EXTT21=
EXTT22=
EXTT23=
EXTT24=
EXTT25=
PLAYORDER=
